# xmcd CD database file
#
# Track frame offsets:
#	150
#	24410
#	42642
#	63530
#	82105
#	100715
#	119981
#	139688
#	161395
#	181835
#	199134
#	219585
#	240422
#	260713
#	278853
#	294375
#	314944
#	330699
#
# Disc length: 4652 seconds
#
# Revision: 0
# Processed by: cddbd v1.5.2PL0 Copyright (c) Steve Scherf et al.
# Submitted via: CDex 1.79
#
DISCID=1b122a12
DTITLE=El Gran Combo de Puerto Rico - Alunizando CD1
DYEAR=2016
DGENRE=Salsa
TTITLE0=Tiene que haber D Eto
TTITLE1=Mi Isla
TTITLE2=Besar tu Boca
TTITLE3=Alunciando
TTITLE4=Arepa con Bacalao
TTITLE5=Seguira
TTITLE6=Sacame el Zapato
TTITLE7=Yo soz tu Amigo
TTITLE8=Callao Puerto Querido
TTITLE9=Guaguanco del Gran Combo
TTITLE10=Lirica Boriquera
TTITLE11=Carmencita
TTITLE12=La Curandera
TTITLE13=No quiero llanto
TTITLE14=Esta buena ya
TTITLE15=Potro Amarrao
TTITLE16=El maceta
TTITLE17=Licor de tu Boquita
EXTD=YEAR: 2016
EXTT0=
EXTT1=
EXTT2=
EXTT3=
EXTT4=
EXTT5=
EXTT6=
EXTT7=
EXTT8=
EXTT9=
EXTT10=
EXTT11=
EXTT12=
EXTT13=
EXTT14=
EXTT15=
EXTT16=
EXTT17=
PLAYORDER=
